<?xml version="1.0" encoding="UTF-8" standalone="no"?>
<!-- Created with Inkscape (http://www.inkscape.org/) -->

<svg
   width="210mm"
   height="297mm"
   viewBox="0 0 210 297"
   version="1.1"
   id="svg943"
   inkscape:version="1.1 (c68e22c387, 2021-05-23)"
   sodipodi:docname="copepod.svg"
   xmlns:inkscape="http://www.inkscape.org/namespaces/inkscape"
   xmlns:sodipodi="http://sodipodi.sourceforge.net/DTD/sodipodi-0.dtd"
   xmlns="http://www.w3.org/2000/svg"
   xmlns:svg="http://www.w3.org/2000/svg">
  <sodipodi:namedview
     id="namedview945"
     pagecolor="#ffffff"
     bordercolor="#666666"
     borderopacity="1.0"
     inkscape:pageshadow="2"
     inkscape:pageopacity="0.0"
     inkscape:pagecheckerboard="0"
     inkscape:document-units="mm"
     showgrid="false"
     inkscape:zoom="0.67081229"
     inkscape:cx="397.27954"
     inkscape:cy="561.25984"
     inkscape:window-width="1920"
     inkscape:window-height="1121"
     inkscape:window-x="-9"
     inkscape:window-y="-9"
     inkscape:window-maximized="1"
     inkscape:current-layer="layer1" />
  <defs
     id="defs940" />
  <g
     inkscape:label="Layer 1"
     inkscape:groupmode="layer"
     id="layer1">
    <path
       style="fill:#000000;stroke-width:0.876685"
       d="m 28.556266,288.14085 c -1.430717,-0.56282 -1.993947,-1.50101 -1.993947,-3.32139 0,-3.78898 -2.227289,-4.04396 -4.458748,-0.51043 -1.88565,2.98594 -5.289436,4.13895 -5.289436,1.79176 0,-0.65986 -0.837193,-1.41402 -1.860429,-1.67589 -1.629445,-0.417 -1.787278,-0.8997 -1.271402,-3.88796 0.521906,-3.02328 0.368142,-3.46838 -1.35013,-3.90812 -1.716261,-0.43923 -1.868216,-0.8762 -1.322196,-3.80195 0.339304,-1.81809 1.385275,-4.59637 2.324355,-6.17389 0.939058,-1.57755 1.707396,-3.57873 1.707396,-4.44707 0,-0.86833 0.624497,-2.08603 1.387735,-2.70594 1.743517,-1.41613 3.92946,-5.4932 3.92946,-7.32898 0,-0.76538 0.812548,-3.13719 1.805664,-5.27068 0.993117,-2.13349 2.606133,-7.47841 3.58448,-11.8776 4.251153,-19.11555 5.180764,-22.92275 6.343243,-25.97851 0.6771,-1.77987 1.504395,-3.50361 1.838424,-3.83051 0.334052,-0.32693 0.607365,-1.29051 0.607365,-2.14132 0,-0.85081 0.528536,-1.85902 1.174562,-2.2405 1.828977,-1.07995 2.519266,-3.72752 1.109876,-4.2568 -1.715257,-0.64416 -7.4802,-9.3351 -9.061615,-13.66081 -0.721991,-1.97495 -1.542402,-7.7159 -1.8231,-12.75766 -0.676372,-12.1487 0.690213,-16.42547 7.023609,-21.98046 2.494347,-2.18776 4.966185,-3.98677 5.492964,-3.99772 0.526777,-0.009 5.743239,-4.72262 11.592161,-10.4703 10.51484,-10.33286 23.046058,-20.5827 24.01026,-19.63905 0.27384,0.268 -1.676646,2.05942 -4.334402,3.98092 -4.085508,2.95372 -14.910537,12.35487 -20.009033,17.3771 -3.191015,3.14327 -5.371504,6.42309 -4.83503,7.27264 0.312375,0.49464 0.160772,0.65311 -0.336716,0.35215 -0.497588,-0.30094 -1.655872,0.29126 -2.573979,1.316 -0.918107,1.02479 -1.109173,1.54069 -0.424613,1.1465 0.865982,-0.49867 1.040922,-0.39411 0.57501,0.34368 -0.368317,0.58322 -1.194433,0.86335 -1.835811,0.62248 -1.773511,-0.66606 -8.94071,5.23321 -10.737083,8.83765 -1.978343,3.96947 -2.610025,14.39103 -1.294486,21.35564 1.240805,6.56889 3.99535,12.10995 8.283406,16.66292 2.87133,3.04875 3.299109,3.98676 2.768738,6.07101 -0.345031,1.35582 -1.122412,2.85542 -1.727492,3.33241 -1.426872,1.12486 -5.305689,11.89216 -6.092414,16.9121 -0.33639,2.1465 -1.132411,5.65902 -1.768915,7.80557 -0.636531,2.14652 -1.855581,6.99446 -2.709052,10.77315 -0.853446,3.7787 -2.290393,8.46205 -3.193226,10.40744 -0.902808,1.94538 -1.65022,4.36073 -1.660947,5.36742 -0.01006,1.0067 -1.016427,3.26816 -2.23495,5.02541 -1.218524,1.7573 -2.215484,3.8978 -2.215484,4.75671 0,0.85888 -0.797577,2.26801 -1.772406,3.1314 -2.023135,1.79184 -2.289664,3.03549 -0.650547,3.03549 0.770698,0 1.161349,1.68207 1.248064,5.37406 0.08316,3.53551 0.559611,5.68666 1.392986,6.28781 0.696719,0.50259 1.11136,1.4992 0.921448,2.21472 -0.189912,0.71552 0.238644,0.33012 0.95222,-0.8564 0.713624,-1.18654 1.150647,-2.3899 0.97116,-2.67415 -0.179611,-0.28425 0.154491,-0.57051 0.742389,-0.63617 0.58782,-0.0656 2.564232,-0.33504 4.392003,-0.59864 l 3.32325,-0.47922 v 3.48957 c 0,1.91927 0.314811,3.48958 0.699582,3.48958 0.384773,0 0.683857,-1.07326 0.66464,-2.38504 -0.02637,-1.80005 0.345459,-2.32253 1.515926,-2.1302 1.012636,0.16644 1.550844,-0.30279 1.550844,-1.35198 0,-0.88377 0.525471,-2.31013 1.167704,-3.1697 1.092116,-1.46167 1.263841,-1.46883 2.651802,-0.11044 0.83134,0.81363 1.974276,1.1718 2.598621,0.8144 0.612993,-0.35092 0.463827,0.11208 -0.33149,1.02882 -0.795292,0.91674 -1.731083,2.58085 -2.079506,3.69796 -0.5731,1.83743 -0.380575,1.77213 2.018639,-0.68484 1.458675,-1.49378 2.919311,-4.10978 3.245853,-5.81328 0.388992,-2.02928 1.184711,-3.24858 2.307524,-3.53594 2.020222,-0.51701 2.303858,-1.97087 0.384522,-1.97087 -1.869825,0 -1.652431,-1.18497 0.572044,-3.1179 l 1.901351,-1.65218 -1.160243,2.16823 c -1.026879,1.91898 -1.004672,2.04268 0.193177,1.07616 1.153386,-0.93064 1.319055,-0.78582 1.121004,0.97995 -0.185891,1.6563 0.105255,1.9856 1.450262,1.64136 1.353923,-0.3465 1.696341,0.055 1.752636,2.05555 0.03843,1.36741 0.271126,1.99836 0.516955,1.40208 0.245932,-0.59625 1.032683,-1.08411 1.748543,-1.08411 0.715836,0 1.730606,-1.20453 2.254998,-2.67675 0.834882,-2.34379 1.114022,-2.51962 2.244221,-1.41357 2.08684,2.04233 4.778308,-1.46132 7.557623,-9.83826 l 2.42863,-7.31991 -4.762859,5.2037 c -2.619573,2.86206 -6.105201,5.93973 -7.745826,6.83931 -2.272657,1.24611 -1.760574,0.55054 2.150647,-2.92119 3.12515,-2.77396 5.032754,-5.13942 4.875801,-6.04609 -0.30951,-1.78795 5.209478,-8.2493 5.743264,-6.72393 0.64467,1.84232 4.708851,-8.25719 6.210082,-15.43209 2.222843,-10.62383 3.600002,-22.56934 2.961914,-25.69174 -0.668583,-3.27158 -4.681694,-10.30065 -5.880949,-10.30065 -0.451568,0 -0.566369,0.64942 -0.255126,1.4432 0.394821,1.00696 0.234124,1.2426 -0.53135,0.77956 -0.603446,-0.36501 -0.89291,-1.18469 -0.643212,-1.82149 0.77075,-1.96569 -2.905017,-5.74882 -4.964174,-5.10923 -1.133742,0.35217 -1.584882,0.22568 -1.225432,-0.3435 0.673758,-1.0669 -2.763739,-3.62141 -4.873189,-3.62141 -0.810313,0 -2.186116,-1.06468 -3.057323,-2.36596 l -1.584052,-2.36594 2.368315,1.51866 c 3.161173,2.02706 2.98445,1.37421 -0.648537,-2.39563 -3.768059,-3.91007 -5.948423,-8.33109 -6.383662,-12.94387 -0.334832,-3.54869 -0.332521,-3.55169 0.569607,-0.74437 0.498193,1.55028 1.042178,2.81867 1.208829,2.81867 0.166548,0 0.258062,-1.65868 0.202974,-3.68595 -0.118827,-4.38578 1.773812,-15.38393 3.431744,-19.9411 0.823453,-2.26343 0.893564,-3.41961 0.231612,-3.81999 -0.561746,-0.33976 -0.691116,-0.16546 -0.316896,0.42715 0.34777,0.55072 0.186394,1.0013 -0.358495,1.0013 -0.544942,0 -0.744323,0.39028 -0.443102,0.8673 0.301246,0.47701 0.08265,0.86729 -0.485606,0.86729 -0.568303,0 -0.803757,0.58541 -0.523211,1.30091 0.280571,0.71552 0.199961,1.30093 -0.17911,1.30093 -0.379018,0 -0.729175,1.85382 -0.778083,4.11961 -0.04898,2.26578 -0.707646,5.48558 -1.463852,7.15512 -1.677224,3.70291 -1.971611,1.11667 -0.367186,-3.22564 0.845357,-2.28787 0.845357,-3.27832 0,-4.60305 -1.258114,-1.9716 -1.425819,-3.75931 -0.288083,-3.07117 0.433982,0.26249 1.039463,-0.82922 1.345558,-2.42599 0.923256,-4.8163 5.282603,-10.17488 13.853714,-17.02916 4.473621,-3.57756 9.730979,-7.87063 11.682998,-9.54016 1.951993,-1.66954 8.763712,-7.13344 15.137125,-12.14202 8.641884,-6.79127 12.558884,-10.526154 15.406724,-14.690446 2.10027,-3.071168 3.8187,-5.901801 3.8187,-6.290309 0,-0.990707 -5.71671,5.372522 -7.03348,7.828931 -0.59724,1.114119 -1.31134,1.80504 -1.58689,1.53537 -0.67808,-0.663629 3.73834,-7.091491 6.46875,-9.414897 1.24562,-1.059961 2.00652,-2.455548 1.75208,-3.213611 -0.24744,-0.736993 0.18866,-0.461844 0.96918,0.611417 1.4503,1.994538 5.09165,2.644159 6.07684,1.084102 0.81488,-1.290366 3.10171,-1.048947 3.10171,0.32744 0,1.947093 2.16602,3.276843 3.38863,2.08034 0.57328,-0.561067 1.03022,-1.429907 1.0154,-1.930768 -0.0151,-0.500859 -0.46021,-0.180942 -0.98974,0.711156 -0.73961,1.245844 -1.12722,1.361415 -1.67213,0.498549 -0.4415,-0.699109 0.18337,-2.291472 1.65437,-4.216806 l 2.36373,-3.093469 -2.3959,1.504497 c -1.31776,0.827465 -3.41139,1.422239 -4.65254,1.321712 -2.74483,-0.222243 -3.02925,-1.539038 -0.33244,-1.539038 1.05827,0 2.59574,-0.594822 3.41662,-1.321835 2.33106,-2.064557 4.61933,-0.72974 3.93981,2.298183 l -0.55908,2.490999 2.55043,-1.432513 c 2.61711,-1.469956 3.92416,-4.96415 1.51904,-4.060916 -0.69877,0.26239 -1.27042,0.04498 -1.27042,-0.482987 0,-0.528026 0.49846,-0.862498 1.10774,-0.743238 1.82949,0.358073 0.94538,-4.582648 -1.22453,-6.843143 -1.08051,-1.125601 -2.49324,-2.04656 -3.13939,-2.04656 -0.64616,0 -1.17482,-0.39028 -1.17482,-0.867267 0,-1.301381 -9.52245,-1.094355 -9.97301,0.216834 -0.2804,0.816058 -1.12041,0.701101 -3.39708,-0.464819 -1.66351,-0.851901 -2.30597,-1.344231 -1.4277,-1.094034 0.92308,0.262956 1.36841,0.09317 1.05547,-0.402473 -0.29781,-0.471531 -1.48893,-0.85736 -2.64696,-0.85736 -1.15801,0 -3.12841,-0.380616 -4.37866,-0.845805 -3.05064,-1.135115 -2.91394,0.272864 0.16378,1.687603 1.46187,0.671943 1.98242,1.280852 1.30092,1.521682 -1.73332,0.612473 -5.34262,-2.079577 -5.759575,-4.295919 -0.30016,-1.595558 -0.35714,-1.530459 -0.29951,0.342266 0.0392,1.271951 -0.718649,3.185363 -1.683981,4.252034 l -1.755174,1.939397 2.845782,-0.537637 c 1.565168,-0.295703 3.084188,-0.160046 3.375528,0.301233 0.2914,0.461378 -0.39102,0.858982 -1.51647,0.883567 -1.686228,0.03688 -1.498825,0.267479 1.06523,1.311018 3.86149,1.571587 6.1295,5.736348 4.29919,7.89467 -0.64932,0.765684 -1.18657,1.827095 -1.19393,2.35871 -0.0502,3.632162 -15.328603,20.36845 -17.4325,19.09594 -0.584832,-0.35375 -0.782656,-0.23946 -0.462645,0.26735 0.307526,0.48697 -0.2291,1.58346 -1.192347,2.43664 -0.963325,0.85321 -1.751508,1.94046 -1.751508,2.41617 0,0.47566 2.492438,-1.37408 5.538733,-4.11055 9.398106,-8.442299 9.961942,-8.878648 11.024437,-8.532032 1.20255,0.392296 -0.24191,5.434582 -1.864524,6.508672 -1.85759,1.22962 -2.551672,0.64763 -1.099929,-0.92231 2.679893,-2.898024 1.517058,-2.933964 -2.299687,-0.071 -4.017432,3.01342 -4.152806,3.14687 -8.13517,8.02005 -1.428004,1.74744 -3.421947,3.20803 -4.430966,3.24567 -1.009018,0.0376 -1.333626,0.26614 -0.721312,0.50773 0.612289,0.24166 0.898613,0.77916 0.636254,1.19458 -0.262333,0.41543 -1.127814,0.51092 -1.923281,0.21217 -1.044438,-0.39225 -1.244749,-0.22397 -0.720884,0.60552 0.49073,0.77711 0.383742,0.94202 -0.330789,0.50985 -0.621633,-0.37599 -3.074555,0.907 -5.961888,3.11832 -7.267128,5.56564 -20.727908,17.21308 -20.727908,17.93554 0,1.22572 -7.039687,8.35084 -7.06443,7.15018 -0.06457,-3.1359 10.179681,-13.53322 25.161687,-25.53755 2.293785,-1.83789 3.949204,-3.55824 3.678682,-3.82299 -0.634672,-0.62115 1.210031,-2.80916 2.368417,-2.80916 0.487413,0 0.338876,0.68298 -0.330059,1.51776 -1.100633,1.37346 -1.06976,1.40535 0.324833,0.33538 0.847593,-0.65031 1.354023,-1.47862 1.125377,-1.84065 -0.228597,-0.36203 1.470632,-2.32537 3.776098,-4.36296 2.305489,-2.03761 3.394215,-3.42022 2.419411,-3.0725 -7.0061,2.49916 -13.84319,0.2754 -19.735242,-6.418888 -4.401098,-5.000339 -5.516703,-7.509924 -5.534388,-12.45003 -0.01258,-3.617461 -0.0299,-3.635727 -5.095656,-5.510761 -7.353869,-2.721922 -17.856402,-4.193746 -21.591251,-3.025786 -1.643236,0.513865 -6.389767,1.19193 -10.547848,1.506784 -7.348971,0.556494 -7.641073,0.5058 -10.459023,-1.814754 -1.9064746,-1.569941 -2.8072474,-3.012831 -2.6311521,-4.214593 0.4036115,-2.754545 3.3058911,-2.818882 5.5032121,-0.121939 2.071115,2.541987 2.315839,2.533776 17.916463,-0.601681 3.229549,-0.64908 5.789963,-0.637403 8.861982,0.04032 2.376105,0.524264 6.307523,1.218284 8.736481,1.542283 2.428932,0.323974 5.687597,1.108933 7.241454,1.744318 2.207068,0.902472 3.954454,0.950953 7.98618,0.221507 2.838522,-0.513521 5.761075,-1.239452 6.494596,-1.613136 0.733494,-0.373709 3.831815,-0.933474 6.885144,-1.243927 7.13507,-0.725438 10.860851,-2.023745 9.040716,-3.150355 -0.714605,-0.442324 -2.096864,-0.814803 -3.071668,-0.827734 -4.156574,-0.05507 -27.547236,-7.074414 -31.669546,-9.503657 -0.846362,-0.498772 -1.843321,-0.894951 -2.215483,-0.880446 -0.372186,0.01475 0.0201,0.424182 0.874171,0.910364 2.199832,1.253957 2.004193,4.876556 -0.302075,5.592924 -1.418031,0.440455 -2.561996,-0.182172 -4.874093,-2.652446 -3.59621,-3.84236 -3.786172,-5.370089 -0.805667,-6.479071 2.572598,-0.957247 2.707066,-1.757694 0.877009,-5.221083 -1.710384,-3.236942 -3.8287,-4.319077 -8.454753,-4.319077 -3.378289,0 -3.668883,0.172828 -3.282932,1.951394 0.232869,1.073261 0.961742,4.411515 1.619699,7.418346 1.310238,5.987628 0.68328,8.208 -2.447646,8.668296 -3.024642,0.444684 -3.797753,-1.731068 -4.03562,-11.357446 -0.194182,-7.863448 0.0025,-9.426629 1.355707,-10.759035 2.070814,-2.039283 8.992133,-1.807525 14.271244,0.477849 3.164488,1.369922 4.287402,2.531269 6.257156,6.471401 2.527405,5.055604 3.559509,5.726958 13.779584,8.963112 2.193328,0.694512 4.785467,1.576087 5.760272,1.959065 3.466688,1.361956 13.923374,3.541814 14.709396,3.0664 0.439484,-0.265809 0.799061,-1.845633 0.799061,-3.510691 0,-1.665059 0.60857,-4.179093 1.35234,-5.586727 0.743795,-1.407635 1.735981,-4.539035 2.204857,-6.958666 0.723321,-3.732663 0.585536,-4.940131 -0.909239,-7.967933 -0.968951,-1.962727 -1.761754,-4.033356 -1.761754,-4.601405 0,-2.141186 -5.207117,-3.224551 -13.32209,-2.77173 -4.366759,0.243632 -8.439631,0.833169 -9.050839,1.309986 -0.611208,0.47684 -2.951088,1.127272 -5.199706,1.445396 -4.842088,0.685046 -8.240902,-0.523257 -11.42006,-4.059884 -2.143863,-2.384941 -2.513262,-2.470127 -11.425234,-2.634499 -7.505599,-0.13841 -9.381879,-0.437284 -10.139891,-1.61493 -0.678582,-1.054232 -0.601336,-1.832774 0.285571,-2.878623 0.946844,-1.116555 2.160293,-1.324415 5.487336,-0.939988 2.3494,0.271462 6.265596,0.725342 8.702642,1.008603 5.316466,0.617956 5.510799,0.0016 1.728496,-5.483276 -3.055815,-4.431206 -3.092969,-6.609196 -0.119819,-7.0235179 2.751329,-0.383395 4.594701,1.2960939 4.594701,4.1861979 0,1.314213 0.598197,2.875328 1.329305,3.469142 0.73111,0.593815 1.32928,1.798724 1.32928,2.677547 0,0.878821 0.793458,2.013444 1.763238,2.521361 0.969779,0.507939 2.37025,2.072324 3.112161,3.476394 1.130626,2.13976 1.669915,2.433618 3.332418,1.815909 4.371608,-1.624346 10.718017,-2.685635 16.059905,-2.685635 6.419385,0 15.941535,2.65574 18.736801,5.225705 1.858922,1.709113 1.861308,1.708547 3.824756,-0.890475 2.292754,-3.034931 5.456399,-3.520155 5.456399,-0.836856 0,1.80246 -4.64626,6.909053 -6.286255,6.909053 -0.499347,0 -0.660797,0.391336 -0.358749,0.869627 0.33124,0.524536 1.143314,0.571023 2.046247,0.117267 0.823377,-0.41383 1.995557,-0.57749 2.604807,-0.363703 1.24349,0.43635 1.50864,3.368469 0.36709,4.058949 -1.539695,0.931261 1.08156,22.6389 2.86387,23.716931 1.48841,0.900259 11.09439,2.108636 15.77548,1.98446 4.54977,-0.12071 10.41217,2.276598 12.41679,5.077535 1.03899,1.451689 1.74151,1.565195 5.59731,0.904242 12.4435,-2.133001 21.8662,-3.411493 25.34462,-3.438807 4.73172,-0.03712 14.54055,-2.023574 16.06114,-3.252552 0.61047,-0.493386 2.50569,-1.247515 4.21162,-1.675827 2.37378,-0.596002 3.16329,-1.284072 3.36417,-2.931873 0.24318,-1.994662 -0.14821,-2.235614 -5.31717,-3.273818 -4.95295,-0.994836 -6.06,-1.624101 -9.85585,-5.60234 -5.66883,-5.941211 -8.62491,-10.03298 -13.19375,-18.262516 -7.67199,-13.819091 -8.17623,-15.036883 -6.99091,-16.883768 1.38667,-2.160682 4.36431,-0.171846 6.69851,4.474009 4.8484,9.649904 8.13792,15.210622 11.11584,18.790542 7.78262,9.355899 9.12037,10.423406 15.95157,12.728916 3.65555,1.233772 6.93946,2.686027 7.29755,3.227255 0.3581,0.541228 0.65619,2.74031 0.66245,4.886857 0.008,2.471183 1.04615,6.209256 2.83232,10.190616 2.76934,6.172822 3.62209,7.152932 4.71615,5.420536 0.30121,-0.477012 1.52111,-0.867291 2.71088,-0.867291 1.71661,0 2.16318,0.447634 2.16318,2.168204 0,1.192521 -0.32292,2.168229 -0.71761,2.168229 -0.39469,0 -2.78129,1.723915 -5.30354,3.830954 -2.52226,2.107013 -5.88813,4.099562 -7.47972,4.427912 -1.59157,0.328326 -4.16558,1.174401 -5.71996,1.880173 -3.81581,1.732542 -5.97468,1.200386 -6.30273,-1.553617 -0.20297,-1.70395 0.47291,-2.793044 2.82102,-4.54582 3.45714,-2.580635 5.67355,-2.934578 6.4221,-1.025567 0.44116,1.125158 0.81194,1.122479 3.07388,-0.02213 1.41471,-0.715973 2.57219,-1.674129 2.57219,-2.129212 0,-2.09315 -3.04122,-7.940251 -4.53756,-8.723955 -0.91619,-0.479889 -1.66582,-1.444192 -1.66582,-2.142932 0,-1.599 -1.24481,-1.636615 -2.56693,-0.07768 -0.55636,0.656062 -2.89822,1.650653 -5.20413,2.21022 -2.30594,0.559543 -5.4173,1.388754 -6.91414,1.842657 -1.49681,0.453928 -4.48774,0.828252 -6.64647,0.831866 -2.15873,0.0049 -6.5171,0.424549 -9.68526,0.935439 -3.16815,0.510916 -6.65817,1.028959 -7.75562,1.151218 -1.09746,0.122185 -2.26059,0.481881 -2.58475,0.799119 -0.32416,0.317239 -1.54269,0.576802 -2.70786,0.576802 -1.16515,0 -3.89022,0.436619 -6.05569,0.970251 -4.3792,1.079186 -4.84418,2.262363 -2.29274,5.834172 2.17812,3.04914 2.93616,8.424956 1.79215,12.70952 -2.38247,8.923114 -3.47574,17.885404 -2.57923,21.143804 1.35535,4.92597 6.57465,9.27231 18.79662,15.65275 5.46422,2.85259 7.81811,5.4104 7.81811,8.49532 0,2.58924 -3.79349,2.72551 -5.6002,0.20111 -1.26675,-1.76995 -8.8831,-6.89879 -10.24476,-6.89879 -0.39495,0 -1.47777,-0.82208 -2.40629,-1.82685 -0.92849,-1.00477 -3.15006,-2.55706 -4.93682,-3.4495 -5.0472,-2.52107 -7.37558,-6.51933 -9.62463,-16.52761 -0.95929,-4.26896 -0.91496,-5.14945 0.34825,-6.91444 1.67951,-2.34667 1.94629,-4.20619 0.38412,-2.67735 -1.31692,1.28879 -6.1399,1.35305 -8.86459,0.118 -1.11961,-0.50747 -3.00758,-2.19131 -4.19554,-3.74188 -1.18795,-1.550594 -3.01859,-3.215854 -4.06808,-3.700564 -1.6424,-0.758551 -2.31216,-0.410288 -4.80942,2.500744 -1.59571,1.86011 -7.53976,7.16033 -13.209029,11.77828 -5.669235,4.61796 -12.140719,9.95742 -14.381022,11.86544 -2.240327,1.90803 -7.633486,6.44898 -11.984794,10.09102 -4.351335,3.64203 -8.4487,7.73997 -9.105276,9.1065 -0.656602,1.36655 -1.519342,3.12045 -1.917228,3.89757 -1.37113,2.67792 -3.689306,18.46559 -3.259442,22.19793 0.617438,5.3609 6.507255,16.14771 9.878611,18.09206 7.932999,4.57511 16.46329,15.9716 16.465274,21.99761 0.0025,8.30687 -5.511953,35.83651 -7.598921,37.93423 -1.385449,1.3926 -6.578723,17.25434 -6.582843,20.10599 -0.0018,1.25464 -0.821217,3.5941 -1.820864,5.19878 -1.604752,2.57609 -2.138539,2.85479 -4.559935,2.38085 -2.080937,-0.40733 -3.405194,-0.0444 -5.490275,1.50404 -1.51133,1.12249 -4.343045,2.54954 -6.292678,3.17123 -5.183703,1.65296 -7.620574,3.46327 -8.994768,6.68199 -1.242816,2.91101 -4.149944,3.93421 -5.040568,1.77411 -0.357592,-0.86728 -0.460987,-0.86728 -0.516956,0 -0.08039,1.24604 -2.275471,1.32672 -5.165592,0.18981 z m 3.433202,-4.54069 c -0.875226,-0.85017 -0.977014,-0.75054 -0.496106,0.48553 0.332797,0.85531 0.828324,1.33666 1.101184,1.06964 0.272836,-0.26703 5.53e-4,-0.96686 -0.605078,-1.55517 z m 30.463834,-12.77801 c -0.30122,-0.47701 -0.101733,-0.86729 0.443101,-0.86729 0.544942,0 0.718023,-0.43195 0.384647,-0.95988 -0.425668,-0.67406 -0.819685,-0.6218 -1.323125,0.17529 -0.683882,1.08291 -0.341816,2.51905 0.599979,2.51905 0.24367,0 0.196695,-0.39028 -0.104499,-0.86728 z m 4.573927,-19.56569 c 0.267234,-0.68158 0.904518,-0.98603 1.416148,-0.67657 0.565237,0.3419 0.664539,0.14186 0.253038,-0.50972 -0.491408,-0.77812 -1.380098,-0.4134 -3.238618,1.32917 -1.408762,1.32088 -2.561394,2.53745 -2.561394,2.70349 0,0.79231 3.705133,-1.76073 4.130826,-2.84637 z m -3.199857,-115.1336 c 2.100481,-1.75958 3.428957,-3.19923 2.952169,-3.19923 -1.575362,0 -11.096457,9.50985 -10.487108,10.47475 0.358848,0.56824 1.217218,-0.0553 2.156048,-1.56612 0.857892,-1.38061 3.278409,-3.94983 5.378891,-5.7094 z m 95.664588,5.17442 c 0,-0.16447 -0.89729,-1.0427 -1.99396,-1.95139 l -1.99393,-1.65218 1.6882,1.9514 c 1.58649,1.83382 2.29969,2.34622 2.29969,1.65217 z m -12.40677,-7.8338 c 0,-0.1802 -0.69787,-0.86308 -1.55084,-1.51776 -1.40557,-1.0788 -1.4369,-1.04812 -0.33458,0.32746 1.1577,1.44468 1.88542,1.90411 1.88542,1.1903 z m -76.213006,-3.34069 c 0,-0.50762 -0.563078,-0.42334 -1.32928,0.19889 -0.731135,0.59382 -1.329306,1.21477 -1.329306,1.3799 0,0.16521 0.598171,0.0757 1.329306,-0.19889 0.731108,-0.27455 1.32928,-0.89551 1.32928,-1.3799 z m 2.771626,-2.18605 c 1.102341,-1.37558 1.07099,-1.40623 -0.334581,-0.32744 -1.476184,1.13301 -1.945612,1.84518 -1.216262,1.84518 0.184134,0 0.881908,-0.68298 1.550843,-1.51774 z m 59.01193,-16.46652 c -0.20373,-1.31832 -0.37579,-0.44557 -0.38243,1.93947 -0.005,2.38504 0.16,3.46368 0.37034,2.39696 0.21025,-1.06669 0.21579,-3.01809 0.0132,-4.33643 z m 1.74185,-9.06423 c -0.28287,-0.69186 -0.49289,-0.48633 -0.53539,0.52399 -0.0384,0.91427 0.17082,1.42651 0.46544,1.13831 0.29448,-0.28818 0.32595,-1.03621 0.0698,-1.6623 z m -59.980619,-1.04551 c 0,-0.18758 -0.618896,-0.57328 -1.375326,-0.85736 -0.788635,-0.29617 -1.144342,-0.1507 -0.833877,0.34084 0.520423,0.82412 2.209203,1.21895 2.209203,0.51652 z m 9.80526,-3.629234 c 1.612892,-1.901986 5.339602,-1.557187 5.901574,0.54602 0.470333,1.760174 0.499724,1.757814 2.684333,-0.21684 3.472692,-3.138898 8.731342,-10.435649 9.388992,-13.027887 0.49294,-1.943036 0.17911,-2.627419 -1.78117,-3.884448 -1.667562,-1.069303 -2.483729,-1.219981 -2.727725,-0.503638 -1.128114,3.312194 -4.021049,5.44571 -7.384014,5.44571 -3.121707,0 -3.48048,-0.223473 -3.48048,-2.168204 0,-1.684283 0.454909,-2.16823 2.038258,-2.16823 2.548607,0 4.16514,-1.524976 4.16514,-3.929264 0,-1.809592 -0.114549,-1.824293 -5.538733,-0.711894 -3.04632,0.624741 -6.735099,1.148242 -8.197342,1.163338 -3.33684,0.03441 -10.758409,2.206458 -13.461005,3.939493 -2.543257,1.630836 -2.566468,3.101359 -0.1246,7.886655 2.304511,4.515852 4.552675,6.699398 9.151849,8.888719 3.671822,1.747894 7.218997,1.270824 9.364796,-1.25953 z m 45.524119,-1.7842 c 2.15954,-4.316251 2.30971,-5.13457 1.28588,-7.006826 l -1.15924,-2.119824 -2.24983,2.558337 c -2.85596,3.247636 -4.45388,3.757173 -7.16855,2.285866 -1.19396,-0.647089 -3.04456,-1.190358 -4.11247,-1.207271 -2.28002,-0.03614 -3.82463,1.846443 -2.00268,2.440797 0.68395,0.223229 3.04759,2.090936 5.25252,4.150699 5.4994,5.137306 7.12081,4.961376 10.15437,-1.101778 z m -61.954752,0.459213 c -1.807776,-1.958303 -3.832519,-4.787805 -4.499419,-6.287828 -0.90605,-2.037833 -1.221362,-2.285055 -1.247287,-0.977848 -0.0304,1.538768 7.309431,10.826173 8.556039,10.826173 0.262635,0 -1.001582,-1.60224 -2.809333,-3.560497 z m 51.821462,3.261277 c 0,-0.16447 -0.89727,-1.0427 -1.99394,-1.95139 l -1.99394,-1.652178 1.68819,1.951398 c 1.5865,1.83383 2.29969,2.346224 2.29969,1.65217 z m 16.83776,-4.501368 c 0,-2.785423 -0.16027,-2.982024 -1.75207,-2.14834 -0.96366,0.504719 -2.20925,1.78685 -2.76797,2.849194 -0.94077,1.788694 -0.86036,1.772004 1.08745,-0.225684 l 2.10329,-2.157192 0.28043,2.374026 c 0.3982,3.371294 1.04887,2.942024 1.04887,-0.692004 z m -24.47538,-0.881821 c 0.30263,-0.771831 0.15399,-1.119946 -0.3483,-0.816107 -0.48181,0.291425 -0.87605,0.897113 -0.87605,1.345977 0,1.24754 0.63519,0.972635 1.22435,-0.52987 z m 76.76104,-7.38351 c 1.38533,-0.05015 1.7174,-0.265881 0.88618,-0.575547 -0.73111,-0.272348 -1.58918,-0.885485 -1.9068,-1.362472 -0.345,-0.518119 -1.59374,-0.06563 -3.10169,1.123658 -2.50602,1.976593 -2.50826,1.986968 -0.30868,1.44279 1.21852,-0.301454 3.21248,-0.58425 4.43099,-0.628429 z M 91.476297,83.781213 c -0.609275,-0.240683 -1.606234,-0.240683 -2.215509,0 -0.609249,0.240682 -0.110776,0.437456 1.107742,0.437456 1.218523,0 1.717015,-0.196922 1.107767,-0.437456 z M 196.8253,82.837856 c 1.10231,-1.375575 1.07097,-1.406257 -0.33461,-0.327465 -1.47618,1.133001 -1.9456,1.845214 -1.21622,1.845214 0.18412,0 0.88187,-0.683006 1.55083,-1.517749 z M 64.656928,78.259068 c -1.948678,-1.20582 -4.662854,-1.043414 -4.05044,0.242403 0.284013,0.596248 0.756708,1.745204 1.050417,2.553248 0.487841,1.342018 0.697724,1.319917 2.425742,-0.25563 1.613394,-1.471038 1.697874,-1.844722 0.574281,-2.539972 z m 36.041362,0.468212 c 1.22694,0.786754 2.43423,1.231388 2.6829,0.988051 0.24869,-0.243386 -1.18172,-1.25816 -3.17858,-2.255161 -2.550724,-1.273476 -3.630681,-2.367584 -3.630681,-3.678159 0,-1.026009 -0.697876,-2.645389 -1.550845,-3.59858 -1.396276,-1.560378 -1.403587,-1.680694 -0.07336,-1.207172 1.604426,0.571122 2.519165,-0.890204 2.496809,-3.988711 -0.0075,-1.069893 -0.294213,-1.479347 -0.664641,-0.94992 -0.93692,1.339092 -3.535241,2.132213 -5.082065,1.551306 -1.616358,-0.607016 -1.818076,-7.355484 -0.3436,-11.494873 0.927804,-2.604752 1.099905,-2.693994 2.931094,-1.519765 1.931896,1.238837 1.941518,1.218015 1.388664,-2.999553 -0.30617,-2.335872 -0.212019,-4.24702 0.209505,-4.24702 0.421397,0 0.701441,-0.487855 0.622311,-1.084103 -0.07913,-0.596272 -0.09044,-1.669533 -0.02537,-2.385041 0.105506,-1.15638 0.214028,-1.15638 0.977616,0 0.734176,1.111761 0.861034,1.080243 0.87264,-0.216835 0.0075,-0.834765 -0.584632,-1.517747 -1.31574,-1.517747 -0.731135,0 -1.335409,0.487854 -1.342871,1.084102 -0.01006,0.729126 -0.308129,0.658151 -0.913132,-0.216835 -0.66979,-0.968679 -0.778134,-0.63642 -0.424211,1.300937 0.261404,1.431014 0.240403,2.113996 -0.04698,1.517748 -1.104275,-2.292405 -2.146903,-0.918993 -2.146903,2.828127 0,2.151733 -0.786576,5.566666 -1.747915,7.588766 -2.526701,5.314552 -2.846437,11.705389 -0.660569,13.203741 0.935188,0.641065 1.759971,2.178973 1.832871,3.417563 0.07336,1.246582 0.785571,2.45518 1.595256,2.707073 1.711515,0.532475 2.782932,3.930028 1.9274,6.111926 -0.456968,1.165428 -0.132133,1.066205 1.391654,-0.424992 1.891277,-1.850893 2.096186,-1.875919 4.218653,-0.514898 z M 95.242623,67.009869 c 0.301245,-0.477014 0.723572,-0.867293 0.938504,-0.867293 0.215032,0 0.390802,0.390279 0.390802,0.867293 0,0.477012 -0.422328,0.867292 -0.938506,0.867292 -0.516177,0 -0.692021,-0.39028 -0.3908,-0.867292 z m -38.992694,9.492688 c -1.949631,-0.902892 -4.342366,-1.641606 -5.317194,-1.641606 -1.148135,0 -0.523889,0.578178 1.772406,1.641606 1.949632,0.902889 4.342367,1.641628 5.317195,1.641628 1.148135,0 0.523889,-0.578202 -1.772407,-1.641628 z m 12.609846,1.258061 c -0.294463,-0.288205 -1.058807,-0.319008 -1.698527,-0.06859 -0.706968,0.276846 -0.49696,0.482372 0.535394,0.523969 0.934208,0.03761 1.457621,-0.167421 1.163133,-0.455502 z m 10.431289,-2.045824 c 3.389467,-0.507103 3.438327,-0.558068 1.115202,-1.163165 -1.541171,-0.401441 -3.618642,-0.146524 -5.681442,0.696872 -1.788559,0.731363 -4.08493,1.102688 -5.103117,0.825178 -1.488846,-0.405816 -1.591012,-0.323999 -0.521905,0.417986 0.741207,0.51443 2.505474,0.663953 3.987889,0.338011 1.462218,-0.321515 4.253741,-0.823211 6.203373,-1.114882 z m 63.806236,0.03565 c 4.87408,-0.913855 11.65351,-1.907708 15.06535,-2.208598 10.25894,-0.904708 13.19525,-1.450705 11.92706,-2.217766 -2.34659,-1.419312 -23.00452,0.292605 -23.00452,1.90638 0,0.451002 -0.49848,0.516299 -1.10775,0.145048 -1.35425,-0.825056 -5.35886,-0.399744 -6.02029,0.639443 -0.4059,0.637673 -2.83024,1.344304 -5.50027,1.603204 -0.58321,0.05655 -1.01405,1.803174 -0.4431,1.796413 0.12182,-0.0013 4.20942,-0.750318 9.08352,-1.664174 z M 20.137385,75.952035 c -0.852969,-0.218064 -2.248742,-0.218064 -3.101712,0 -0.852943,0.218064 -0.154994,0.396621 1.550869,0.396621 1.705912,0 2.403811,-0.178483 1.550843,-0.396621 z m 83.524125,0.256982 c 0,-0.18758 -0.6189,-0.573286 -1.37533,-0.857336 -0.78863,-0.296193 -1.14436,-0.150702 -0.8339,0.34084 0.52045,0.824096 2.20923,1.218924 2.20923,0.516496 z M 26.562319,74.815322 c 1.181597,-0.747296 1.181597,-0.83543 0,-0.793046 -0.731133,0.02631 -2.126882,0.3831 -3.10171,0.793046 l -1.772381,0.745377 1.772381,0.04769 c 0.974828,0.02631 2.370577,-0.330637 3.10171,-0.793047 z m 5.077169,-0.52397 c -0.294489,-0.288203 -1.058832,-0.319008 -1.698552,-0.06859 -0.706943,0.276846 -0.49696,0.482349 0.535419,0.52397 0.934184,0.03761 1.457597,-0.16742 1.163133,-0.455501 z m 56.95666,-0.343296 c 1.781023,-0.558217 1.867916,-0.699405 0.443102,-0.719884 -0.974828,-0.01475 -2.569985,0.309911 -3.544787,0.719884 -2.258239,0.949673 0.0716,0.949673 3.101685,0 z M 39.633731,73.326853 c -1.340383,-0.198642 -3.53371,-0.198642 -4.874093,0 -1.340383,0.198644 -0.24367,0.361294 2.437046,0.361294 2.680742,0 3.777405,-0.162503 2.437047,-0.361294 z M 179.78713,69.205165 c -3.68174,-1.236673 -4.62976,-0.885729 -3.28785,1.217179 0.85771,1.344083 1.43855,1.45459 3.66082,0.696453 l 2.64136,-0.901144 z m -3.00806,0.416388 c -0.31047,-0.49164 0.0453,-0.637034 0.8339,-0.340864 1.53526,0.576556 1.81616,1.198198 0.54142,1.198198 -0.45862,0 -1.07751,-0.385803 -1.37532,-0.857334 z m -2.51715,0.437456 c 0,-0.974282 -0.28722,-1.053888 -1.1816,-0.327441 -0.64987,0.527854 -1.1816,1.107064 -1.1816,1.287171 0,0.180204 0.53173,0.327441 1.1816,0.327441 0.64987,0 1.1816,-0.579212 1.1816,-1.287171 z m 17.2228,-3.667048 c -0.85125,-1.431555 -0.92403,-1.411887 -0.9489,0.256416 -0.0299,2.007645 1.09466,3.573038 1.56815,2.182834 0.16655,-0.488863 -0.11202,-1.586512 -0.61925,-2.43925 z m -9.40099,-0.239452 c 0.31046,-0.491641 -0.0453,-0.637033 -0.83391,-0.340864 -1.53526,0.576555 -1.81616,1.198199 -0.54141,1.198199 0.45861,0 1.07751,-0.385805 1.37532,-0.857335 z M 85.272899,64.700892 c -0.60925,-0.240681 -1.606235,-0.240681 -2.215484,0 -0.609273,0.240683 -0.110775,0.437457 1.107742,0.437457 1.218523,0 1.717015,-0.196921 1.107742,-0.437457 z M 191.32511,62.363817 c -0.0476,-1.268634 -0.22608,-1.445642 -0.5621,-0.557674 -0.27068,0.715507 -0.89377,1.797692 -1.38467,2.404878 -0.66771,0.825868 -0.52613,0.966344 0.5621,0.557676 0.80003,-0.300447 1.42315,-1.382657 1.38467,-2.40488 z M 80.841907,63.833601 c -0.609249,-0.240682 -1.606233,-0.240682 -2.215483,0 -0.609274,0.240682 -0.110776,0.437456 1.107742,0.437456 1.218522,0 1.717015,-0.196921 1.107741,-0.437456 z M 75.524738,62.96631 c -0.609274,-0.240683 -1.606234,-0.240683 -2.215509,0 -0.609249,0.240681 -0.110776,0.437456 1.107742,0.437456 1.218523,0 1.717015,-0.196922 1.107767,-0.437456 z m 19.004485,-0.509711 c 0.525498,-0.68399 0.462722,-2.684603 -0.170066,-5.420537 l -1.002989,-4.336435 -0.607615,2.92708 c -1.305265,6.288074 -0.417906,9.691577 1.780695,6.829892 z M 69.099802,60.938851 c -0.73111,-0.46241 -1.728095,-0.840741 -2.215509,-0.840741 -0.487388,0 -0.288006,0.378331 0.443102,0.840741 0.731109,0.462385 1.728094,0.840715 2.215509,0.840715 0.487389,0 0.288007,-0.37833 -0.443102,-0.840715 z M 34.077137,56.766394 c -0.197195,-2.294838 -0.779491,-5.124342 -1.294185,-6.287803 -0.796801,-1.801208 -0.860556,-1.600155 -0.429286,1.353745 0.278586,1.908027 0.727391,4.201022 0.997311,5.095506 0.29469,0.976495 0.131883,1.409207 -0.407707,1.082921 -0.541223,-0.327367 -0.714051,0.14677 -0.434662,1.192324 0.887284,3.320579 1.924639,1.709065 1.568529,-2.436693 z m 27.046886,1.570582 c -0.73111,-0.462386 -1.728094,-0.840717 -2.215509,-0.840717 -0.487389,0 -0.288007,0.378331 0.443102,0.840717 0.731108,0.462409 1.728094,0.84074 2.215508,0.84074 0.487389,0 0.288007,-0.378331 -0.443101,-0.84074 z m 35.148619,-2.818662 c -0.245931,-0.596272 -0.446997,-0.108423 -0.446997,1.084102 0,1.19252 0.201216,1.680375 0.446997,1.084103 0.24593,-0.596248 0.24593,-1.571957 0,-2.168205 z M 54.480486,55.73982 c -0.299612,-0.474457 -1.419839,-1.277041 -2.489347,-1.783556 -1.842316,-0.872478 -1.834554,-0.827096 0.147458,0.862621 2.257862,1.924843 3.212995,2.300445 2.341815,0.920935 z m 43.588526,-4.12427 c -0.222818,-0.834767 -0.405295,-0.151686 -0.405295,1.517749 0,1.669532 0.182376,2.352514 0.405295,1.517747 0.222821,-0.834765 0.222821,-2.200729 0,-3.035496 z m 85.350278,3.252307 c -0.7311,-0.462384 -1.99657,-0.84669 -2.81214,-0.853991 -0.81559,-0.0074 -2.80955,-1.067827 -4.43099,-2.356694 l -2.94814,-2.343418 2.16666,2.362422 c 1.19167,1.299314 3.38498,2.70894 4.87409,3.132482 3.67653,1.045701 4.74197,1.065714 3.15052,0.05925 z M 98.063486,45.165096 c -0.282882,-0.691857 -0.49289,-0.486355 -0.535394,0.523994 -0.03844,0.914273 0.17107,1.42649 0.465434,1.138311 0.294488,-0.288205 0.325964,-1.036237 0.06983,-1.662305 z m 70.398404,-2.305854 c -1.4848,-1.834666 -3.40915,-3.883611 -4.27638,-4.553244 -0.86724,-0.669632 0.15171,0.831471 2.2645,3.335746 4.41081,5.228262 6.07057,6.232686 2.01188,1.217498 z M 38.321282,42.156986 c -0.59998,-0.237485 -1.796347,-0.25204 -2.658586,-0.0322 -0.862238,0.219786 -0.371332,0.414273 1.090887,0.431949 1.462217,0.01721 2.167704,-0.162258 1.567699,-0.399793 z m 54.259992,-8.623379 c -0.714428,-0.524191 -1.050491,-1.196258 -0.746758,-1.493484 0.459681,-0.44987 -3.294789,-2.323554 -4.655922,-2.323554 -0.228847,0 0.794162,1.157685 2.273187,2.57262 1.479048,1.41496 2.695261,3.073627 2.70272,3.685977 0.01006,0.780657 0.269393,0.724604 0.869675,-0.187579 0.598999,-0.910266 0.466011,-1.587101 -0.442902,-2.253955 z m 69.677456,0.801257 c -1.04469,-1.758184 -1.29697,-1.19542 -0.44179,0.985544 0.30391,0.775076 0.73925,1.226569 0.96741,1.003269 0.22811,-0.223228 -0.008,-1.118276 -0.52562,-1.988813 z M 63.301172,30.64456 c 0.553306,-0.876142 9.647653,-2.270721 12.320431,-1.889268 1.04685,0.149473 1.419388,-0.126365 1.021603,-0.756318 -0.770272,-1.219735 -8.055788,-0.570458 -14.257001,1.270551 -5.961311,1.769789 -7.021198,1.657732 -8.196463,-0.866652 -0.558481,-1.199552 -1.999698,-2.619897 -3.202747,-3.156354 -1.203049,-0.536434 -2.359022,-1.603967 -2.568854,-2.372256 -0.344981,-1.263201 -0.391328,-1.264503 -0.484299,-0.01475 -0.05652,0.760841 0.694783,2.089731 1.669613,2.953114 0.974804,0.863358 1.77238,2.0753 1.77238,2.693183 0,0.617881 0.697902,1.521213 1.550845,2.007422 1.951917,1.112619 9.692744,1.209753 10.374492,0.130297 z m 20.199345,-2.369674 c -0.609275,-0.240682 -1.606234,-0.240682 -2.215508,0 -0.609249,0.240682 -0.110788,0.437456 1.107741,0.437456 1.218524,0 1.717016,-0.196921 1.107767,-0.437456 z M 45.847428,24.784232 c -0.847266,-0.21708 -2.442422,-0.224948 -3.544787,-0.01721 -1.102341,0.207494 -0.409114,0.385068 1.540518,0.39468 1.949632,0.0099 2.851561,-0.160045 2.004269,-0.377174 z M 32.525691,23.988875 c -0.294488,-0.288204 -1.058832,-0.319009 -1.698551,-0.06859 -0.706943,0.276871 -0.496961,0.482372 0.535393,0.523994 0.934208,0.03761 1.457621,-0.167421 1.163158,-0.455527 z m 5.795591,-0.04499 c -0.59998,-0.237486 -1.796347,-0.25204 -2.658586,-0.0322 -0.862238,0.219784 -0.371332,0.414273 1.090887,0.431949 1.462217,0.01721 2.167704,-0.162257 1.567699,-0.399817 z M 19.209809,275.6771 c 0.875727,-1.1458 1.719552,-1.96438 1.875174,-1.81903 0.465735,0.43495 -1.980405,3.90229 -2.752988,3.90229 -0.392935,0 0.0021,-0.93747 0.877814,-2.08326 z m 6.550915,0.39989 c -0.814585,-0.49272 -0.867966,-0.87832 -0.17911,-1.29491 0.539463,-0.32627 1.00884,-0.0823 1.043106,0.54206 0.03416,0.62442 0.405019,0.35473 0.823904,-0.59927 0.620879,-1.41402 0.773136,-1.46356 0.823928,-0.26802 0.07812,1.83952 -0.999622,2.53469 -2.511704,1.62014 z m 8.781772,-6.77266 c 0.0024,-0.35775 1.007183,-1.82131 2.232817,-3.25233 l 2.22842,-2.60185 -1.87726,3.25231 c -1.824909,3.16164 -2.592996,3.93504 -2.583977,2.60187 z m 9.775265,-3.72489 c 1.562425,-1.93062 3.027204,-3.32776 3.255074,-3.10475 0.598472,0.58572 -3.323301,5.57374 -4.826013,6.13808 -0.698401,0.26229 0.0075,-1.10272 1.570939,-3.03333 z M 18.586542,265.2149 c 0,-0.22199 1.15012,-1.68546 2.555866,-3.25234 1.405722,-1.56686 2.701791,-3.22116 2.880147,-3.67621 0.178357,-0.45504 1.042706,-0.87914 1.92077,-0.94244 1.118996,-0.0807 0.333752,1.13958 -2.625276,4.07966 -4.157453,4.13087 -4.731507,4.59084 -4.731507,3.79133 z m 7.975777,-0.32941 c 0,-0.40309 0.859301,-1.47635 1.909567,-2.38504 l 1.90959,-1.65218 -1.568403,2.38505 c -1.617213,2.45926 -2.250754,2.92432 -2.250754,1.65217 z m 15.951534,-0.95051 c 0,-0.44886 0.394243,-1.05455 0.876056,-1.34597 0.50236,-0.30387 0.650923,0.0442 0.348296,0.81607 -0.589153,1.50251 -1.224352,1.77742 -1.224352,0.5299 z m -8.858641,-0.55712 c 0.005,-1.06777 3.377009,-6.43238 4.043808,-6.43238 0.290621,0 -0.37093,1.46357 -1.470156,3.25234 -2.48166,4.03849 -2.577721,4.15718 -2.573652,3.18004 z m -6.649816,-2.09594 c 0.88221,-0.954 1.803407,-1.73455 2.047101,-1.73455 0.24367,0 -0.278689,0.78055 -1.160897,1.73455 -0.882184,0.95402 -1.803379,1.73459 -2.047099,1.73459 -0.24367,0 0.278712,-0.78057 1.160895,-1.73459 z m 15.605398,-4.1196 c 5.390823,-8.70588 6.431493,-10.10356 6.774086,-9.09778 0.203477,0.59741 0.796297,0.82832 1.317374,0.51313 0.56471,-0.34156 0.688379,-0.16275 0.306169,0.44239 -0.352694,0.55849 -0.992464,0.803 -1.421748,0.54337 -1.160194,-0.70177 -2.622387,2.49739 -2.076015,4.5421 0.261129,0.97731 0.07838,2.01665 -0.405947,2.30964 -0.520272,0.31469 -0.690917,-0.17773 -0.416951,-1.20304 0.741383,-2.77455 -0.353873,-2.01757 -2.507988,1.73335 -1.095759,1.90805 -2.350153,3.46917 -2.787578,3.46917 -0.4374,0 0.111027,-1.46356 1.218598,-3.25233 z m -12.503685,0.70164 c 0,-0.44884 0.394216,-1.05455 0.876029,-1.34597 0.502361,-0.30385 0.650923,0.0442 0.348296,0.81611 -0.589127,1.50249 -1.224325,1.77741 -1.224325,0.52986 z m -4.430992,-2.60184 c 0,-0.44886 0.394218,-1.05456 0.87603,-1.34599 0.502361,-0.30384 0.650924,0.0442 0.348296,0.81612 -0.589127,1.5025 -1.224326,1.7774 -1.224326,0.52987 z m 28.358329,-1.02354 c 0,-0.69375 1.213851,-2.61264 2.697471,-4.26412 l 2.697472,-3.00275 -2.373618,3.90278 c -2.931116,4.81945 -3.021325,4.9199 -3.021325,3.36409 z m 6.610025,-35.51139 c -0.321267,-0.50872 -0.344804,-1.15921 -0.05225,-1.44546 0.29253,-0.28626 0.531853,-0.0422 0.531853,0.54253 0,0.58466 0.46041,0.78453 1.02311,0.44419 0.633893,-0.38341 0.782581,-0.23798 0.390801,0.38246 -0.78351,1.24068 -1.148839,1.2554 -1.893462,0.0762 z m -9.268636,-7.26304 c 0,-0.68736 0.361612,-1.46846 0.803558,-1.73576 0.441946,-0.26731 0.59483,0.29506 0.339731,1.24974 -0.541123,2.02511 -1.143289,2.28111 -1.143289,0.48602 z m 1.772408,0.48483 c 0,-0.47702 0.398789,-1.1085 0.886203,-1.4033 0.48739,-0.2948 0.886179,-0.14579 0.886179,0.33129 0,0.47699 -0.398789,1.10847 -0.886179,1.40328 -0.487414,0.29482 -0.886203,0.14579 -0.886203,-0.33127 z m 22.257749,-2.53859 c -0.05652,-0.6244 -0.443301,-0.92937 -0.859424,-0.67765 -0.824984,0.49897 -2.788182,-3.13857 -2.788182,-5.16616 0,-0.69307 0.388565,-1.26011 0.863444,-1.26011 1.275246,0 3.737287,5.08779 3.280772,6.7797 -0.21654,0.80273 -0.440088,0.94864 -0.49661,0.32422 z m -28.116543,-1.46657 c 0.803833,-2.18271 4.38369,-7.37006 4.802976,-6.95971 0.172328,0.16863 -0.15022,1.15391 -0.71659,2.18963 -1.344627,2.45887 -0.355806,3.39286 1.310265,1.23763 0.710586,-0.91921 1.304661,-1.34255 1.320161,-0.94077 0.01507,0.40176 -0.769393,1.72281 -1.744222,2.93564 -1.538233,1.9138 -1.776299,1.98918 -1.801872,0.57043 -0.02612,-1.44092 -0.253543,-1.37767 -1.919513,0.53351 -1.542101,1.76907 -1.772432,1.84889 -1.251205,0.43364 z m -1.230783,-1.69434 c 0,-1.17983 4.822547,-8.17396 5.952194,-8.63247 0.834755,-0.3388 -1.847418,3.89015 -5.678755,8.95363 -0.150473,0.19864 -0.273439,0.0543 -0.273439,-0.32116 z m -2.658609,-6.10526 c 0,-1.19775 5.456012,-8.2452 6.383311,-8.2452 0.595911,0 0.47096,0.59579 -0.318327,1.51776 -0.714606,0.83476 -2.371557,2.8161 -3.682123,4.40297 -1.310565,1.58686 -2.382861,2.63288 -2.382861,2.32447 z m 11.172295,-5.28062 c -0.831891,-2.12163 -0.651525,-2.40196 0.791375,-1.22999 1.473194,1.19656 1.763739,2.60185 0.537905,2.60185 -0.435238,0 -1.033434,-0.61734 -1.32928,-1.37186 z m 5.647682,-0.81732 c -1.712445,-2.01937 -0.490555,-2.39991 1.342166,-0.41801 0.884897,0.95695 1.197145,1.73989 0.69388,1.73989 -0.503265,0 -1.419488,-0.59484 -2.036046,-1.32188 z m -9.230326,-10.56589 c -0.480907,-1.23604 -0.379119,-1.33569 0.496107,-0.4855 0.605632,0.58831 0.877912,1.28813 0.605078,1.55514 -0.27286,0.26704 -0.768387,-0.21438 -1.101185,-1.06964 z m -2.245326,-26.70646 c 0,-0.47702 0.38658,-1.45269 0.859073,-2.16821 0.472467,-0.71552 0.859047,-0.91065 0.859047,-0.43364 0,0.47702 -0.38658,1.4527 -0.859047,2.16821 -0.472493,0.7155 -0.859073,0.91065 -0.859073,0.43364 z M 102.02885,90.823145 c 1.01881,-1.689889 1.9954,-2.932561 2.17021,-2.761502 0.69444,0.679614 -1.88316,5.834023 -2.91745,5.834023 -0.74208,0 -0.49661,-1.009341 0.74724,-3.072521 z m 12.65318,-5.424739 c 0.31468,-0.970301 0.15725,-2.015216 -0.35011,-2.322006 -1.78574,-1.080095 -0.95584,-2.268658 0.90393,-1.294571 2.02362,1.059887 2.07286,4.348825 0.0749,4.993406 -0.85593,0.276133 -1.03645,-0.119234 -0.62859,-1.376829 z m 1.38625,-5.70675 c 0,-1.443774 2.47753,-3.607996 3.25703,-2.845139 0.30559,0.299071 1.08084,-0.133247 1.72279,-0.960516 1.01525,-1.308461 1.17085,-1.324809 1.19537,-0.125627 0.0151,0.758186 -0.96878,1.823088 -2.1873,2.366454 -1.21852,0.543343 -2.21549,1.386541 -2.21549,1.873781 0,0.487216 -0.39879,0.885878 -0.8862,0.885878 -0.48741,0 -0.8862,-0.537638 -0.8862,-1.194733 z m 2.65858,-8.294243 c 0,-0.448863 0.39425,-1.054527 0.87606,-1.345976 0.50236,-0.303839 0.65092,0.04425 0.3483,0.816107 -0.58915,1.502505 -1.22436,1.77741 -1.22436,0.529869 z M 27.448498,16.707268 c 0,-0.477013 0.398789,-0.867293 0.886204,-0.867293 0.487414,0 0.886203,0.39028 0.886203,0.867293 0,0.477013 -0.398789,0.867291 -0.886203,0.867291 -0.487415,0 -0.886204,-0.390278 -0.886204,-0.867291 z"
       id="path609"
       sodipodi:nodetypes="sssssssssssssssssssssssssssssssssssssssssssssssssssssscssssssssssssssscsssssssssscssssssssssssssscssssssssssssssssssssssssssssssssssssscssssscsssssssssssssssssscsssssssssssssssssssssssssssssssscssssssssssssssssssssssssssssssssssssssssssssssssscsssssssssssssssssssssssssssssssscsssssssssssssssssscsssssssssssssssssssssssssssscsssssssssssssssssssssssssssssssssscssssssssscsssssccscccssccsssssssssssssssssssssscsscsssssssssscsssssscssssssssssssssssssssssssssssssscsssscsssscscsscssscsssssssssssssssssssssssssssssssssscsssssssssssssccsssssscssssssssscssssssssssssssssssssssssssssssssssssscsssssssssssssssssssssssssssssssssscsssscssccssssssssssssssscsscsssssssssssssssssssssssssssssssssssssssssscsssssssssssssscsssssssssssssssssssssssssssssssssssscssssssssssssssssssssssssssssssssssssssssssssssssssssssssssssssssssssssssssssssssssssss" />
  </g>
</svg>
